<?xml version="1.0" standalone="no"?>
<!DOCTYPE svg PUBLIC "-//W3C//DTD SVG 20010904//EN"
 "http://www.w3.org/TR/2001/REC-SVG-20010904/DTD/svg10.dtd">
<svg version="1.0" xmlns="http://www.w3.org/2000/svg"
 width="512.000000pt" height="512.000000pt" viewBox="0 0 512.000000 512.000000"
 preserveAspectRatio="xMidYMid meet">
<metadata>
Created by potrace 1.16, written by Peter Selinger 2001-2019
</metadata>
<g transform="translate(0.000000,512.000000) scale(0.100000,-0.100000)"
fill="#000000" stroke="none">
<path d="M3118 5106 c-10 -7 -18 -21 -18 -30 0 -12 -6 -15 -23 -11 -16 4 -28
0 -38 -11 -10 -13 -10 -16 -1 -10 17 10 12 -23 -6 -42 -7 -8 -9 -19 -5 -25 12
-18 10 -31 -7 -45 -8 -8 -9 -11 -2 -7 6 3 12 1 12 -5 0 -7 9 -9 23 -5 19 5 20
4 5 -5 -22 -14 -23 -30 -2 -56 8 -10 13 -13 9 -6 -4 8 2 12 17 12 18 0 20 -2
9 -9 -11 -7 -5 -11 21 -16 29 -6 36 -11 33 -26 -3 -16 -1 -18 16 -8 11 5 25 8
32 5 9 -3 9 -5 0 -5 -7 -1 -13 -6 -13 -12 0 -6 9 -8 20 -4 14 5 20 2 20 -9 0
-19 11 -20 29 -3 11 10 12 7 7 -18 l-6 -30 15 25 c12 21 19 21 17 -1 -1 -3 10
-5 23 -3 13 1 24 -1 24 -4 -3 -20 3 -23 18 -11 12 10 15 11 9 1 -6 -9 -1 -11
18 -8 17 3 29 -1 36 -12 9 -16 9 -16 10 1 0 16 2 16 22 -3 21 -19 23 -20 30
-3 6 16 7 16 7 1 1 -12 8 -15 25 -12 26 4 80 -19 69 -30 -4 -4 0 -4 10 0 9 3
17 11 17 16 0 6 6 5 15 -2 8 -7 24 -10 35 -7 10 3 24 -1 30 -8 7 -9 23 -12 46
-8 21 4 40 1 51 -8 9 -8 14 -9 10 -2 -10 16 6 24 23 12 13 -8 13 -10 0 -19
-13 -8 -12 -10 5 -11 11 -1 28 -1 38 0 9 1 17 -3 17 -9 0 -6 5 -8 10 -5 6 4 8
9 6 13 -2 4 13 7 33 8 34 0 37 -2 33 -23 -2 -13 1 -23 7 -23 6 0 11 5 11 10 0
13 47 13 55 0 5 -8 11 -7 21 1 11 9 14 8 14 -2 0 -11 2 -11 10 1 5 8 10 10 10
4 0 -16 69 -25 93 -13 14 8 18 8 13 0 -9 -14 -4 -14 29 -1 14 5 24 6 21 1 -9
-14 22 -21 36 -8 7 7 31 13 53 14 28 1 34 -1 20 -6 -16 -6 -12 -9 20 -15 22
-4 48 -10 59 -13 13 -3 16 -1 11 7 -4 7 13 1 38 -13 39 -22 56 -26 115 -23 38
1 74 6 80 10 7 4 12 2 12 -6 0 -9 3 -9 10 2 5 8 10 11 10 6 0 -6 5 -5 12 2 16
16 28 15 28 -2 0 -21 21 -31 31 -15 4 7 25 14 46 15 21 1 52 4 68 7 71 14 85
15 80 7 -3 -5 3 -14 14 -20 23 -12 40 5 22 23 -6 6 -11 16 -11 22 0 5 5 3 10
-5 5 -8 10 -10 10 -4 0 6 7 11 15 11 8 0 15 -4 15 -9 0 -4 -4 -8 -10 -8 -5 0
-10 -5 -10 -11 0 -7 10 -9 24 -5 14 3 31 3 40 0 13 -5 13 -8 1 -20 -17 -17
-32 -18 -39 -1 -4 8 -5 7 -4 -3 2 -26 -13 -49 -28 -43 -8 3 -14 -1 -14 -10 0
-19 14 -30 24 -19 4 4 12 8 17 8 22 3 23 5 9 14 -12 8 -11 10 7 10 12 0 23 -6
25 -12 3 -9 9 -8 21 4 15 15 17 50 17 327 l0 311 -992 0 c-810 -1 -996 -3
-1010 -14z"/>
<path d="M3345 3785 c-258 -24 -486 -45 -505 -47 -34 -3 -35 -4 -32 -43 2 -22
5 -41 6 -43 2 -1 115 7 252 18 137 11 376 30 532 42 l282 23 0 47 c0 48 0 48
-32 47 -18 -1 -244 -21 -503 -44z"/>
<path d="M3725 3653 c-293 -25 -955 -73 -1017 -73 l-28 0 0 -90 0 -90 90 0 89
0 4 78 3 77 2 -77 2 -78 43 5 c23 2 96 7 162 10 66 2 213 10 328 17 l207 11 2
81 2 81 3 -77 4 -78 47 0 c26 0 84 3 130 7 l82 6 0 98 0 99 -57 -2 c-32 -1
-76 -3 -98 -5z"/>
<path d="M4805 3594 c-104 -7 -278 -20 -386 -29 -108 -8 -266 -15 -352 -15
l-156 0 -3 -167 c-2 -93 -3 -376 -3 -630 l0 -463 -45 1 -45 1 38 10 37 10 0
74 0 74 -526 0 c-489 -1 -525 -2 -522 -18 2 -12 20 -20 63 -28 57 -10 50 -11
-115 -17 -351 -13 -1396 -17 -1376 -5 11 6 65 14 120 18 56 4 84 8 63 9 -53 2
-43 24 14 34 24 4 234 10 467 13 232 4 422 11 422 15 0 10 -341 15 -648 10
-183 -4 -192 -3 -192 15 0 17 -6 19 -45 16 -25 -2 -45 -8 -45 -12 0 -5 -10 -6
-22 -2 -16 4 -19 2 -13 -9 5 -8 -1 -6 -12 4 -13 11 -23 14 -27 8 -4 -6 -13 -8
-21 -4 -8 3 -15 0 -15 -7 0 -7 -8 -9 -20 -5 -12 4 -27 1 -35 -5 -11 -9 -18 -7
-34 9 -12 12 -21 16 -21 10 0 -7 -12 -10 -30 -7 -17 3 -30 1 -30 -4 0 -5 -10
-6 -22 -2 -28 9 -38 9 -62 -2 -15 -5 -17 -4 -11 6 6 10 1 12 -25 6 -19 -3 -59
-9 -89 -13 -31 -3 -64 -10 -74 -15 -11 -6 -17 -5 -17 3 0 6 -7 9 -14 6 -10 -4
-13 -1 -9 9 4 12 0 14 -21 8 -19 -4 -33 -1 -46 11 -19 18 -20 17 -31 -13 -12
-34 -13 -35 -44 -23 -13 5 -29 2 -45 -8 -13 -9 -21 -11 -17 -4 9 15 -7 25 -28
17 -10 -4 -14 -13 -10 -23 4 -10 -3 -7 -19 8 -23 22 -27 23 -43 9 -36 -30 -42
-30 -38 2 3 18 0 28 -5 25 -6 -4 -10 -13 -10 -21 0 -8 -4 -14 -9 -14 -5 0 -12
-12 -17 -27 -5 -21 -8 -24 -11 -10 -3 9 -9 15 -14 12 -5 -4 -9 1 -9 9 0 24
-41 20 -47 -4 -5 -17 -8 -18 -21 -8 -11 10 -16 10 -19 2 -2 -7 -13 -10 -23 -7
-16 4 -20 0 -20 -23 0 -37 -11 -24 -12 15 -1 41 -12 47 -28 17 -7 -13 -23 -26
-36 -29 -29 -5 -32 9 -4 18 11 4 18 11 15 16 -11 17 -24 9 -41 -22 -12 -24
-18 -28 -24 -18 -5 7 -6 17 -4 21 3 5 -7 6 -22 2 -23 -6 -26 -4 -21 10 4 9 2
16 -3 16 -17 0 -20 -18 -5 -33 22 -22 18 -33 -4 -13 -18 17 -20 16 -26 -5 -11
-32 -32 -52 -41 -38 -3 6 -19 9 -35 7 -16 -3 -29 -1 -29 4 0 4 -6 8 -13 8 -16
0 -41 -43 -58 -102 -7 -26 -16 -45 -19 -43 -11 7 -10 -98 1 -111 7 -8 6 -14
-1 -19 -15 -9 -13 -112 3 -118 9 -4 9 -6 0 -6 -10 -1 -13 -196 -13 -940 0
-923 0 -939 20 -944 10 -3 21 0 24 7 2 6 5 3 5 -6 1 -10 -4 -18 -10 -18 -5 0
-8 -4 -5 -8 3 -5 -4 -18 -14 -30 -11 -12 -20 -28 -20 -37 0 -14 244 -15 2459
-15 1936 0 2461 3 2464 13 4 9 6 9 6 0 1 -8 14 -13 34 -12 25 0 28 2 13 8 -18
7 -18 8 -2 14 24 10 26 9 26 -8 0 -9 9 -15 23 -15 17 0 19 2 7 10 -8 5 -11 13
-6 17 4 4 13 0 21 -10 12 -16 13 -16 18 3 3 11 1 20 -4 20 -4 0 -6 6 -3 14 3
8 -1 20 -9 27 -17 16 -10 52 9 45 7 -3 16 -1 19 4 3 5 -3 10 -12 13 -15 3 -14
6 7 14 36 15 50 -11 19 -38 l-23 -19 25 3 c20 3 25 11 27 40 3 31 1 36 -17 32
-14 -3 -19 1 -18 16 1 12 7 17 15 14 7 -2 10 0 7 5 -3 5 -1 19 5 29 7 13 9
118 8 303 -3 252 -5 280 -17 255 -10 -19 -17 -24 -22 -15 -14 22 -19 2 -8 -30
6 -17 9 -37 6 -44 -3 -8 -6 -5 -6 6 -1 17 -3 16 -19 -4 -16 -20 -19 -21 -31
-6 -12 14 -11 16 8 16 11 0 21 4 21 9 0 13 -27 21 -45 15 -9 -4 -15 0 -15 10
0 21 -16 21 -24 0 -3 -9 -13 -14 -21 -10 -8 3 -17 1 -21 -5 -3 -6 -16 -14 -28
-19 -17 -7 -17 -9 -3 -9 33 -2 8 -33 -28 -36 -17 -1 -55 -44 -45 -50 6 -4 10
-1 10 4 0 6 5 11 11 11 24 0 0 -25 -24 -25 -28 -1 -51 -15 -24 -15 21 0 31
-17 16 -26 -8 -5 -9 -3 -4 5 5 9 0 12 -16 9 -13 -1 -24 -10 -24 -18 0 -9 7
-14 18 -12 18 3 24 -22 7 -33 -6 -4 -7 1 -3 12 5 14 3 16 -7 6 -15 -13 -43 -6
-34 9 4 6 1 8 -7 6 -8 -3 -13 -12 -11 -21 1 -8 -8 -24 -21 -34 -29 -23 -25
-48 5 -32 15 8 17 13 8 19 -9 5 -9 9 -1 14 6 4 11 2 11 -5 0 -7 8 -5 20 6 11
10 20 14 20 9 0 -5 -13 -20 -30 -34 -27 -22 -44 -60 -21 -46 5 3 11 -4 14 -15
5 -20 5 -20 -14 -3 -20 18 -21 18 -40 -6 -11 -14 -18 -18 -17 -10 2 8 12 23
23 33 20 18 20 18 -2 5 -26 -15 -41 -5 -23 17 10 12 10 15 -4 15 -9 0 -16 5
-16 12 0 6 -3 8 -6 5 -4 -4 -1 -13 5 -21 13 -16 -1 -32 -19 -21 -5 3 -10 1
-10 -4 0 -6 6 -11 13 -12 6 0 4 -4 -7 -8 -18 -7 -18 -8 -1 -25 13 -12 20 -14
25 -6 5 8 9 7 13 -4 5 -12 -1 -20 -19 -26 -35 -14 -47 -12 -41 4 6 15 -18 30
-33 21 -4 -3 -6 4 -3 15 3 12 2 20 -3 19 -20 -3 -35 2 -30 10 3 5 -3 11 -13
14 -10 2 -24 18 -32 36 -8 17 -20 31 -27 31 -7 0 -10 5 -6 11 6 11 39 9 162
-8 29 -3 42 -2 42 7 0 6 7 18 15 26 8 9 15 11 15 5 0 -6 4 -11 8 -11 5 0 9 7
9 15 0 16 -3 17 -184 45 -136 22 -176 20 -166 -6 3 -7 1 -14 -5 -14 -6 0 -13
6 -15 13 -4 9 -6 9 -6 0 -1 -9 -7 -7 -21 4 -25 21 -25 30 -2 36 9 2 7 3 -5 2
-13 -1 -23 2 -23 6 0 5 10 11 23 13 66 14 97 16 97 7 0 -5 -10 -11 -22 -13
-25 -4 204 -47 293 -55 51 -5 57 -3 85 24 16 16 29 36 29 44 0 8 7 14 15 14 8
0 24 10 37 23 13 13 46 34 74 46 28 13 47 26 42 29 -4 3 -117 15 -250 28 -134
13 -239 27 -235 31 5 5 71 1 148 -7 76 -9 200 -23 274 -31 126 -14 136 -14
169 3 49 25 71 45 71 63 0 13 -30 19 -182 33 -101 10 -196 18 -213 18 -27 1
-26 2 10 10 27 7 81 5 172 -6 73 -8 150 -15 173 -15 40 0 40 0 40 39 0 33 -4
40 -22 44 l-23 4 23 2 c12 0 22 5 22 9 0 5 -64 14 -142 20 -182 16 -188 15
-188 -4 0 -9 -5 -12 -11 -8 -20 12 -152 17 -145 5 5 -7 -8 -11 -37 -11 -37 0
-46 4 -50 21 -4 16 -11 20 -26 16 -12 -3 -23 -1 -26 3 -3 5 7 11 22 13 24 3
23 4 -8 6 -22 0 -36 -4 -37 -11 0 -7 -4 -28 -7 -45 -6 -31 -4 -33 22 -33 25
-1 26 -2 9 -12 -14 -8 -24 -8 -37 1 -26 16 -49 14 -49 -4 0 -8 -5 -15 -11 -15
-5 0 -8 4 -5 8 3 4 -11 17 -31 28 -27 14 -37 16 -41 6 -2 -6 -8 -10 -13 -6 -5
3 -9 -1 -9 -8 0 -8 -5 -6 -11 5 -6 9 -22 17 -37 17 -22 0 -28 5 -29 22 -1 13
-7 24 -13 26 -21 7 -9 22 18 22 15 0 34 5 42 10 33 21 -86 9 -189 -19 -58 -16
-119 -32 -135 -36 -15 -3 -26 -8 -23 -11 2 -3 44 5 92 17 50 12 91 17 96 12 5
-5 1 -9 -9 -10 -35 -2 -123 -20 -129 -27 -3 -3 27 -7 68 -7 41 -1 88 -5 104
-9 18 -5 -13 -6 -75 -3 -133 6 -155 9 -168 17 -25 15 -354 -67 -512 -128 l-65
-25 60 5 c36 4 121 -2 215 -15 85 -11 313 -39 505 -61 193 -22 390 -47 439
-56 81 -16 87 -18 65 -29 -13 -7 -43 -15 -66 -19 -23 -3 -50 -9 -60 -13 -10
-3 -15 -3 -11 2 4 4 31 16 60 26 29 9 45 18 35 18 -16 1 -224 25 -662 76 -71
9 -185 23 -253 31 -103 14 -125 14 -139 3 -15 -12 -16 -12 -10 4 6 17 1 18
-81 14 -107 -7 -111 -7 -105 -23 2 -6 0 -15 -6 -19 -7 -3 -11 3 -11 15 0 13
-4 19 -12 14 -7 -4 -8 -3 -4 4 4 7 14 12 23 12 9 0 14 2 11 5 -3 3 -83 -13
-179 -35 -159 -38 -175 -40 -186 -25 -6 10 -9 23 -6 31 4 10 0 12 -11 8 -11
-4 -16 0 -16 13 0 11 -7 28 -15 39 -13 17 -14 17 -15 2 0 -10 -6 -18 -12 -18
-8 -1 -6 -6 5 -14 21 -16 21 -23 2 -43 -17 -16 -25 -14 -29 10 -2 17 -36 53
-36 39 0 -6 -7 -13 -16 -16 -8 -3 -12 -2 -9 4 3 6 1 10 -6 10 -7 0 -9 3 -6 7
4 3 2 12 -3 18 -14 17 -2 45 16 38 11 -4 14 5 14 36 0 23 -3 41 -7 41 -8 0
-223 26 -338 41 -44 5 -88 12 -97 15 -13 4 -18 0 -18 -17 0 -21 -2 -22 -82
-16 -46 4 -95 7 -110 7 -16 0 -28 4 -28 9 0 5 45 9 101 9 108 0 136 6 67 15
-42 6 -304 31 -441 43 -38 3 -67 7 -65 8 2 2 80 6 173 9 146 6 167 4 152 -7
-16 -13 -11 -15 50 -21 80 -7 145 -15 428 -53 144 -19 212 -25 217 -18 5 7 8
7 8 -1 0 -8 13 -13 33 -13 56 0 64 -17 12 -24 -36 -6 -45 -11 -41 -23 3 -8 6
-21 6 -29 0 -8 5 -14 11 -14 5 0 7 4 4 10 -6 10 7 14 34 11 7 -2 11 1 8 6 -3
4 9 8 26 9 18 1 104 18 192 38 88 20 170 39 183 41 19 5 22 11 22 60 0 59 -6
64 -54 45 -14 -5 -28 -5 -31 0 -3 4 7 13 22 19 l28 11 -27 -4 c-16 -2 -28 0
-28 4 0 4 -18 10 -39 14 -22 3 -43 10 -46 16 -3 5 0 7 9 4 8 -3 25 0 38 7 l23
13 -25 8 c-18 5 -15 6 13 2 22 -3 37 -1 37 6 0 6 -25 10 -61 10 -45 0 -58 -3
-53 -12 6 -10 4 -10 -7 0 -7 6 -18 12 -23 12 -6 0 -5 -4 2 -9 10 -6 9 -10 -7
-14 -12 -3 -19 -2 -16 3 3 4 -2 11 -11 14 -26 10 -36 7 -30 -9 4 -10 -1 -15
-14 -15 -11 0 -20 -4 -20 -10 0 -5 -46 -8 -117 -5 l-118 4 95 -9 c137 -14 140
-18 13 -19 -61 0 -113 3 -115 8 -2 5 -109 11 -243 13 -132 2 -242 6 -245 9 -3
4 -86 10 -184 14 -163 7 -179 6 -173 -9 4 -10 1 -16 -8 -16 -21 0 -18 16 5 33
17 12 18 16 6 20 -9 4 -19 0 -24 -8 -5 -10 -47 -20 -127 -30 -140 -18 -165
-24 -165 -36 0 -10 94 -9 132 2 16 4 28 4 28 -1 0 -8 96 -6 239 4 29 3 58 9
64 15 6 6 22 11 37 10 l25 -1 -25 -8 c-24 -7 -23 -7 12 -15 21 -4 45 -5 53 -1
8 3 25 1 37 -4 16 -6 -7 -9 -77 -8 -73 0 -123 -6 -185 -22 -57 -15 -103 -20
-140 -17 -30 2 -67 0 -83 -5 -19 -7 -32 -7 -42 2 -18 15 -196 3 -207 -14 -5
-6 -8 -1 -8 12 0 27 7 27 -265 -25 -99 -19 -245 -45 -323 -59 -142 -24 -390
-76 -547 -113 -142 -34 -166 -35 -197 -6 -15 14 -33 25 -39 25 -8 0 -6 7 4 18
10 10 14 21 11 25 -4 3 7 9 22 13 16 4 38 13 49 20 15 9 137 34 169 34 3 0 7
24 8 53 1 36 2 42 5 19 l4 -33 47 5 c26 4 41 3 34 0 -7 -3 -17 -14 -22 -25
-10 -17 -7 -19 20 -19 23 0 30 4 30 20 0 17 5 19 33 14 22 -4 28 -3 18 4 -11
8 -11 10 0 15 10 4 8 6 -4 6 -10 1 -16 5 -13 10 9 13 108 30 286 46 191 18
200 20 200 45 0 10 5 22 11 26 7 4 9 0 5 -14 -4 -11 -3 -22 1 -25 7 -4 238 18
253 23 9 4 -154 28 -200 30 -41 2 -42 3 -15 9 17 4 80 4 140 0 61 -4 125 -8
144 -8 33 -1 34 0 15 14 -15 11 -16 15 -4 16 8 0 4 5 -10 9 -25 8 -25 8 5 10
30 2 30 2 5 10 -15 5 2 6 41 3 60 -5 68 -4 78 15 6 11 8 28 5 36 -3 9 -1 16 5
16 6 0 11 -11 11 -25 0 -25 1 -25 81 -25 60 0 80 3 76 13 -2 6 -12 11 -21 11
-11 -1 -16 6 -16 22 0 22 -2 23 -21 13 -12 -6 -24 -7 -28 -3 -3 5 -41 10 -83
11 -43 2 -99 3 -125 4 -27 1 -61 -1 -78 -5 -26 -5 -26 -4 3 5 19 5 32 15 29
22 -2 8 -45 13 -147 14 -98 1 -145 5 -150 13 -5 9 -9 9 -11 1 -3 -7 -48 -12
-121 -15 -112 -4 -117 -3 -139 20 -23 25 -45 23 -35 -3 6 -14 -17 -15 -196
-10 l-202 5 -23 28 c-43 54 -34 65 67 82 31 5 46 13 48 25 3 14 -5 17 -52 17
-31 0 -56 5 -56 10 0 6 25 10 55 10 37 0 55 4 55 13 0 9 3 8 9 -2 7 -11 40
-12 177 -7 220 9 251 13 257 36 3 11 -1 21 -10 24 -11 5 -12 10 -2 28 9 17 9
24 -4 33 -11 8 -13 15 -5 29 7 13 6 25 -3 43 -9 16 -10 27 -3 31 6 4 15 15 21
26 9 17 12 -5 16 -129 0 -11 6 -23 11 -27 8 -5 8 -10 0 -18 -6 -6 -9 -24 -6
-40 3 -24 8 -28 31 -25 14 1 47 3 74 4 l47 1 0 91 0 91 -75 -4 c-41 -2 -75 0
-75 3 0 4 31 9 69 11 39 2 73 7 78 11 4 4 10 29 14 55 4 29 7 -10 8 -105 0
-86 5 -153 10 -153 5 0 11 8 13 18 2 11 6 13 11 5 4 -6 0 -18 -8 -26 -19 -20
-19 -31 0 -23 10 4 17 -4 23 -26 8 -33 32 -51 32 -24 0 9 4 16 10 16 5 0 9 -5
7 -12 -1 -6 6 -14 16 -16 16 -3 18 3 15 65 l-3 68 -35 1 c-63 2 -66 7 -10 14
l55 7 -63 1 -63 2 3 38 3 37 58 -3 c46 -2 57 0 57 12 0 11 -10 16 -32 17 -38
1 -80 7 -86 14 -2 2 7 7 22 11 14 3 26 11 26 16 0 6 7 5 16 -3 13 -10 17 -10
24 0 6 11 9 11 16 0 6 -9 11 23 15 86 4 75 6 43 8 -125 1 -124 6 -245 10 -270
7 -39 9 -41 10 -12 1 25 5 32 21 32 11 0 20 5 20 11 0 6 7 3 16 -6 25 -24 36
-14 40 35 l4 45 -47 -3 c-36 -2 -44 0 -33 7 8 6 30 11 48 11 17 0 32 5 32 10
0 6 -5 10 -11 10 -8 0 -8 5 1 15 11 13 6 15 -36 14 -41 -1 -44 -2 -19 -8 l30
-7 -25 -7 c-39 -11 -40 -10 -40 43 l0 50 56 0 c40 0 55 3 51 13 -2 6 -21 12
-43 13 -67 1 -74 3 -68 18 4 11 19 14 54 11 l48 -4 4 77 c2 42 1 96 -1 120 -3
37 -6 42 -27 42 -13 0 -24 -5 -24 -12 0 -9 -3 -9 -12 0 -19 19 -4 24 84 27 46
2 106 4 133 6 l50 2 -60 6 -60 7 80 7 c135 14 130 11 129 60 -1 69 -3 75 -29
81 -51 13 -23 21 52 15 43 -3 82 -2 88 3 5 4 -22 8 -61 8 l-70 0 4 34 4 33
116 8 c199 13 1055 7 1064 -8 11 -17 10 -91 -2 -121 -9 -26 -11 -26 -117 -28
l-108 -1 100 -7 c55 -4 144 -8 198 -9 57 -1 97 -5 97 -11 0 -5 -16 -10 -36
-10 -29 0 -35 -3 -30 -16 5 -14 -1 -15 -51 -10 -219 22 -225 21 -137 -23 44
-22 54 -23 168 -18 259 14 331 20 311 28 -12 5 -3 6 25 3 29 -3 38 -1 26 4
-32 14 1 21 106 22 51 1 174 8 273 16 213 16 303 18 290 5 -6 -6 -116 -19
-245 -31 -129 -11 -320 -29 -425 -40 -500 -52 -574 -55 -1112 -52 l-513 3 0
-45 0 -46 50 0 c33 0 50 4 50 13 0 9 2 9 9 -1 5 -8 33 -15 69 -17 l62 -4 0 35
c0 23 4 33 11 28 6 -3 9 -17 6 -30 -2 -13 -1 -24 4 -24 4 0 10 10 12 23 l4 22
2 -22 c2 -32 31 -30 31 1 0 17 5 23 18 22 10 -2 17 -12 17 -24 0 -12 3 -22 8
-22 4 0 19 1 35 1 23 2 24 2 5 6 -15 3 -23 12 -23 24 0 24 16 25 29 2 10 -17
10 -17 11 0 0 24 18 22 22 -3 5 -32 22 -29 29 5 l7 30 1 -35 c1 -29 5 -36 21
-36 15 0 20 7 20 28 0 18 5 28 14 28 16 0 31 -34 21 -49 -3 -5 7 -11 22 -13
23 -2 28 -8 28 -30 -1 -39 23 -35 28 5 l4 32 1 -32 c2 -41 22 -44 22 -3 0 27
3 30 30 30 17 0 29 3 29 8 -4 26 3 41 16 36 18 -7 20 -30 3 -37 -7 -3 -1 -6
14 -6 21 -1 25 3 21 19 -3 11 0 20 6 20 6 0 11 -9 11 -20 0 -11 7 -20 15 -20
9 0 15 9 15 23 0 17 2 19 9 7 6 -8 8 -17 5 -21 -2 -4 13 -9 33 -11 35 -3 38
-6 41 -36 l3 -34 187 5 c103 3 212 10 242 15 107 21 240 33 570 50 113 6 223
16 245 21 50 13 145 14 145 2 0 -5 -8 -12 -17 -14 -14 -4 -13 -5 4 -6 12 0 24
-5 27 -9 5 -9 118 -18 347 -27 68 -3 143 -8 166 -10 54 -6 55 -5 51 190 l-3
150 -455 3 c-250 1 -538 6 -640 11 -135 6 -10 8 462 7 l648 -1 0 -183 0 -182
223 1 c122 0 230 -3 240 -6 11 -5 17 -2 17 5 0 10 21 12 89 7 48 -4 96 -9 105
-13 14 -6 16 15 16 226 0 216 -1 231 -17 226 -10 -3 -119 -12 -243 -21 -124
-9 -263 -20 -310 -25 -117 -13 -630 -13 -630 0 0 6 11 15 24 20 44 16 375 32
779 37 332 4 397 7 397 19 0 12 -58 14 -360 14 -198 0 -360 3 -360 8 0 4 5 14
10 22 8 13 58 15 342 15 358 1 368 1 368 13 0 4 -156 9 -348 11 -191 2 -348 7
-350 12 -2 5 -36 9 -75 10 -73 0 -71 17 3 18 72 2 80 8 80 62 0 38 -4 49 -16
49 -14 0 -14 2 1 16 14 14 56 16 360 15 338 -1 345 -1 345 19 0 20 -7 20 -342
20 -195 0 -337 4 -329 9 11 7 11 10 0 16 -30 19 40 24 349 24 207 1 322 5 322
11 0 6 -115 10 -325 10 -276 0 -331 2 -356 16 -25 13 -28 18 -18 30 19 23 29
104 12 104 -7 0 -13 4 -13 9 0 17 78 21 388 21 253 0 312 3 312 13 0 11 -62
13 -341 9 -242 -3 -340 -2 -338 6 4 10 262 20 562 21 78 1 117 5 117 12 0 8
-101 10 -351 7 -341 -3 -351 -2 -365 17 -13 18 -13 20 1 23 14 3 16 14 13 63
l-4 59 35 9 c20 5 162 12 316 16 318 7 355 10 355 32 0 11 -7 14 -23 9 -36 -9
-684 -17 -664 -8 10 4 17 12 15 17 -4 13 95 22 242 24 63 1 186 4 273 8 128 5
157 9 157 21 0 11 -10 13 -52 8 -29 -3 -164 -8 -299 -12 -242 -7 -395 0 -369
16 22 14 -24 30 -84 30 -54 0 -55 0 -58 33 -2 24 -8 33 -25 35 -22 3 -36 30
-53 100 -7 30 -6 32 17 32 28 0 740 47 851 56 53 4 72 10 72 20 0 17 -48 17
-315 -2z m-3605 -2564 c47 -5 184 -19 305 -30 233 -21 574 -59 789 -86 71 -9
164 -17 207 -18 62 -1 75 -4 66 -14 -11 -14 -114 -10 -227 9 -105 17 -750 90
-965 109 -289 26 -382 38 -320 39 33 0 98 -3 145 -9z m-413 -166 c90 -13 222
-31 295 -39 73 -9 174 -23 223 -31 50 -9 126 -19 170 -23 l80 -8 -77 -1 c-55
-1 -78 -6 -78 -14 0 -10 23 -13 82 -12 46 1 61 0 33 -2 -110 -8 -115 -11 -115
-53 l0 -39 38 8 c20 4 60 10 87 14 42 5 47 3 33 -7 -11 -9 -14 -18 -7 -28 13
-20 11 -29 -5 -29 -10 0 -12 -7 -8 -22 3 -14 2 -19 -6 -14 -8 5 -12 0 -12 -13
0 -12 -6 -21 -14 -21 -8 0 -16 -4 -18 -9 -5 -15 -68 -24 -68 -10 0 7 -8 3 -18
-9 -33 -38 -87 -29 -97 16 -3 15 -20 41 -37 57 -17 16 -26 31 -21 32 5 2 39 9
74 17 l64 13 0 66 0 66 -60 10 c-33 6 -220 31 -415 56 -195 25 -382 49 -415
54 -54 9 -50 9 35 5 52 -3 168 -16 257 -30z m1616 -4 c46 0 40 -16 -8 -22 -28
-3 -30 -6 -27 -37 1 -19 4 -36 5 -37 1 -1 26 2 56 8 29 5 55 7 57 5 2 -2 -7
-16 -21 -32 -15 -15 -23 -30 -20 -33 3 -4 10 0 14 7 11 17 31 6 31 -17 0 -12
-3 -13 -8 -5 -5 8 -17 10 -37 5 -28 -8 -29 -9 -10 -20 11 -6 15 -12 8 -12 -6
0 -15 -9 -18 -21 -4 -13 -12 -18 -21 -15 -8 3 -13 2 -10 -3 3 -5 0 -11 -8 -14
-8 -3 -12 -16 -11 -31 2 -14 0 -26 -5 -26 -4 0 -10 -9 -13 -20 -7 -28 -34 -15
-42 19 -3 16 -17 38 -30 50 -26 22 -33 41 -15 41 6 0 10 5 10 10 0 15 -30 12
-31 -2 0 -7 -6 0 -13 16 -10 21 -15 25 -20 15 -3 -8 -3 -4 -1 7 4 14 0 24 -10
28 -9 3 -14 10 -11 15 4 5 0 12 -6 14 -10 4 -10 6 -1 6 7 1 17 -7 22 -18 10
-18 13 -18 76 -3 l65 16 0 43 0 43 -27 -17 c-15 -10 -24 -12 -20 -5 6 9 -2 12
-29 12 -35 0 -37 1 -18 15 10 8 36 15 57 15 22 0 37 5 38 13 0 10 2 10 6 0 3
-8 22 -13 46 -13z m805 -127 c79 -6 81 -7 60 -22 -13 -9 -27 -15 -32 -13 -5 2
-17 -5 -28 -14 -13 -13 -17 -26 -13 -48 2 -17 2 -25 -1 -18 -3 6 -12 12 -20
12 -9 0 -13 4 -10 9 4 5 -2 8 -11 6 -10 -2 -22 -4 -27 -4 -4 -1 -1 -13 9 -27
9 -15 12 -23 6 -19 -7 4 -18 1 -26 -5 -15 -13 -39 -4 -30 11 3 5 -1 6 -9 3 -8
-3 -23 0 -33 6 -16 10 -16 11 -1 6 10 -3 20 -1 23 4 4 6 1 10 -5 10 -6 0 -9 4
-6 9 3 4 -3 16 -14 26 -11 10 -20 15 -20 11 0 -4 -6 -1 -14 6 -12 11 -11 14 8
19 21 6 21 6 1 14 -11 4 -26 9 -32 11 -7 2 -13 9 -13 15 0 9 21 10 78 5 42 -3
114 -9 160 -13z"/>
<path d="M3745 3443 c-27 -2 -142 -10 -255 -18 -155 -12 -756 -45 -813 -45 -5
0 -7 -26 -6 -57 1 -32 2 -77 1 -100 l-2 -42 -47 -4 c-27 -2 13 -5 87 -7 74 -2
110 -5 80 -7 -30 -2 -70 -5 -87 -8 -31 -6 -33 -8 -33 -50 0 -33 -4 -45 -15
-45 -8 0 -15 -7 -15 -15 0 -8 7 -15 15 -15 11 0 15 -11 15 -35 0 -28 -5 -38
-22 -45 l-23 -9 23 0 c17 -1 22 -7 22 -25 0 -23 -5 -25 -47 -28 -37 -2 -47 -7
-45 -18 2 -8 4 -30 4 -48 0 -20 4 -32 12 -29 6 2 12 9 12 15 1 7 3 14 4 17 1
3 3 11 4 18 0 6 13 13 29 15 26 3 27 2 27 -47 l0 -51 -57 -1 c-32 -1 -65 -1
-75 0 -9 1 -19 -3 -23 -9 -4 -6 7 -10 29 -10 30 0 36 -4 37 -22 l0 -23 9 23
c7 17 17 22 45 22 32 0 36 -2 30 -20 -4 -12 -2 -27 4 -34 9 -11 1 -12 -39 -8
l-50 5 0 -51 c0 -43 -3 -50 -22 -56 -13 -3 -25 -1 -26 4 -5 14 -22 2 -22 -16
0 -9 11 -14 30 -14 17 0 30 5 30 13 0 9 2 9 9 -1 5 -9 22 -13 47 -10 37 3 39
2 42 -29 l3 -33 -80 0 c-48 0 -81 -4 -81 -10 0 -7 235 -10 690 -10 l690 1 0
364 0 364 -47 4 -48 3 49 2 49 2 -7 61 c-3 34 -6 88 -6 120 l0 59 -42 -2 c-24
-1 -65 -3 -93 -5z"/>
<path d="M2243 3353 c-62 -4 -63 -4 -63 -33 0 -41 37 -43 43 -2 l4 27 2 -28
c1 -23 5 -28 23 -25 14 2 25 13 29 28 7 24 10 24 13 -2 1 -18 57 -23 67 -6 7
10 9 10 9 0 0 -9 11 -11 38 -8 20 3 49 5 65 5 22 1 27 6 27 26 l0 25 -97 -2
c-54 -1 -126 -3 -160 -5z"/>
<path d="M2055 3224 c-355 -17 -488 -35 -200 -28 402 11 617 22 628 33 14 14
-46 13 -428 -5z"/>
<path d="M2350 3159 c0 -5 -5 -7 -11 -3 -14 8 -499 -6 -499 -15 0 -3 37 -5 82
-5 46 1 66 0 46 -3 -27 -3 -38 -9 -38 -21 0 -15 2 -15 11 -2 8 12 12 12 16 2
4 -10 8 -10 19 -1 10 8 14 8 14 0 0 -15 37 -14 43 2 4 9 8 8 16 -3 10 -13 11
-13 11 0 0 13 1 13 10 0 9 -13 11 -13 20 0 9 13 11 13 21 0 8 -11 12 -12 16
-2 2 6 9 12 14 12 6 0 7 -4 4 -10 -3 -5 1 -10 10 -10 9 0 13 5 10 10 -3 6 -1
10 4 10 6 0 11 -4 11 -8 0 -4 9 -8 20 -9 11 -1 20 4 20 10 0 8 3 8 8 2 4 -6
56 -9 130 -7 l122 3 0 30 0 29 -65 0 c-39 0 -65 -4 -65 -11z"/>
<path d="M2082 3034 c-222 -7 -406 -14 -409 -18 -4 -3 -4 -8 -1 -11 5 -5 811
15 817 20 17 17 -58 18 -407 9z"/>
<path d="M1838 2951 c-86 -3 -160 -9 -164 -13 -4 -5 62 -8 148 -8 270 0 668
13 668 22 0 9 -391 8 -652 -1z"/>
<path d="M1955 2880 c-159 -4 -291 -7 -293 -8 -2 -1 0 -6 3 -12 3 -5 46 -10
95 -10 75 0 88 -2 84 -15 -4 -8 -1 -15 5 -15 6 0 11 6 11 13 0 9 3 8 9 -2 7
-11 64 -12 304 -10 162 2 297 6 300 9 2 3 7 17 11 33 l6 27 -122 -2 c-68 -1
-253 -5 -413 -8z"/>
<path d="M1718 2755 c-4 -4 -150 -13 -260 -16 -25 0 -23 -17 2 -22 18 -4 18
-5 -2 -5 -60 0 -111 -5 -95 -9 9 -2 17 -9 17 -14 0 -6 -8 -8 -19 -4 -33 10
-90 8 -104 -4 -9 -6 -34 -10 -62 -7 -55 4 -114 -7 -80 -15 43 -11 175 -10 196
1 15 8 19 9 15 1 -8 -12 4 -15 43 -11 18 1 22 -2 18 -14 -5 -13 4 -14 61 -11
50 4 62 2 49 -6 -9 -5 -21 -8 -25 -5 -4 2 -15 -2 -25 -9 -16 -11 -14 -12 15
-10 18 2 47 3 63 4 23 1 27 3 15 11 -11 7 3 10 48 10 48 0 62 3 62 15 0 13 53
15 420 15 370 0 420 2 420 15 0 14 -48 15 -422 12 -233 -3 -442 -8 -465 -12
-24 -4 -49 -3 -60 4 -14 8 -5 9 36 5 37 -4 51 -2 47 5 -4 7 -1 9 8 5 10 -4 16
3 20 23 l6 28 415 -3 c366 -2 415 -1 415 13 0 13 -47 15 -383 15 -211 0 -386
-2 -389 -5z"/>
<path d="M1747 2592 c-137 -2 -169 -5 -173 -17 -7 -16 -44 -21 -44 -5 0 5 -7
6 -17 3 -11 -4 -14 -3 -9 5 4 7 2 10 -6 7 -7 -2 -33 -9 -57 -15 -40 -11 -42
-12 -25 -26 17 -12 17 -13 2 -8 -10 3 -18 2 -18 -3 0 -16 35 -12 60 8 20 16
21 18 5 13 -16 -6 -17 -4 -8 6 8 9 16 9 30 1 10 -6 14 -11 8 -11 -13 0 16 -20
30 -20 6 0 3 5 -5 10 -11 7 -7 10 17 10 17 0 34 4 38 9 7 13 44 10 42 -4 -1
-5 5 -8 13 -5 8 2 208 3 444 1 402 -3 429 -2 423 14 -4 9 -7 21 -7 26 0 8
-295 9 -743 1z"/>
<path d="M1325 2060 c-3 -5 -12 -7 -20 -3 -13 4 -15 -21 -14 -178 1 -101 4
-168 8 -149 5 32 9 35 41 35 30 0 35 4 40 30 3 17 4 83 2 148 -3 98 -6 118
-18 113 -8 -3 -14 -1 -14 4 0 13 -17 13 -25 0z"/>
<path d="M1407 1738 c-5 -179 -2 -238 13 -238 13 0 18 60 15 205 -1 100 0 116
4 55 5 -74 8 -85 24 -82 9 2 17 -2 17 -8 0 -5 -7 -10 -15 -10 -13 0 -15 -14
-13 -82 2 -66 6 -83 18 -83 19 0 24 105 15 293 l-7 132 -32 0 -33 0 -6 -182z"/>
<path d="M1550 1796 c0 -121 1 -125 23 -129 l22 -4 -22 -2 c-22 -1 -23 -5 -23
-84 0 -46 3 -86 6 -89 3 -3 14 -4 25 -1 18 5 19 16 19 219 l0 214 -25 0 -25 0
0 -124z"/>
<path d="M1720 1789 c0 -98 3 -119 15 -119 12 0 15 22 18 113 1 66 4 27 5 -95
2 -177 4 -208 17 -208 12 0 15 16 15 85 0 50 -4 85 -10 85 -5 0 -10 4 -10 8 0
5 30 5 68 1 92 -10 457 -27 742 -35 129 -3 265 -9 302 -13 l67 -7 4 85 3 86 2
-87 2 -88 53 0 c28 0 89 -3 135 -6 l82 -6 0 36 c0 20 5 36 10 36 6 0 10 -18
10 -40 0 -22 5 -40 10 -40 6 0 10 7 10 16 0 14 2 14 16 3 14 -11 18 -11 29 4
11 15 13 15 23 -6 6 -12 11 -17 11 -11 1 6 30 9 78 8 65 -1 78 -4 84 -20 6
-16 8 -14 10 9 1 15 3 32 4 37 1 6 3 34 5 63 1 28 4 47 6 41 3 -8 18 -9 47 -3
23 4 66 8 95 9 35 0 52 4 52 13 0 9 2 9 9 -1 4 -8 11 -13 15 -13 24 3 40 0 30
-7 -7 -4 -13 -44 -15 -92 -4 -82 -3 -85 19 -88 23 -4 23 -2 22 90 -2 138 -2
137 14 116 17 -23 26 -23 26 2 0 18 6 20 63 17 55 -2 63 -5 74 -27 l12 -25 1
28 c0 24 2 26 19 17 27 -14 71 -13 72 3 1 6 5 -4 9 -23 5 -19 6 -76 3 -126
l-5 -91 138 -6 c75 -4 163 -7 196 -7 57 0 58 1 58 28 0 25 -3 27 -42 27 -24 0
-46 -4 -50 -10 -5 -6 -8 -5 -8 3 0 7 -15 12 -39 12 -33 0 -40 -4 -44 -22 -4
-22 -4 -22 -6 -2 -1 19 -8 22 -63 26 -35 3 -66 1 -69 -4 -11 -16 -19 21 -19
83 0 47 -3 59 -16 59 -8 0 -12 5 -9 10 4 6 10 8 15 5 5 -3 10 2 12 12 2 14 14
16 68 14 80 -3 98 -7 103 -29 4 -15 5 -15 6 -1 1 21 41 27 115 19 36 -4 57 -2
58 4 1 6 5 -45 8 -114 l5 -125 33 -3 32 -3 0 89 c0 49 3 110 6 135 l6 45 -63
6 c-167 14 -1308 56 -1954 71 -137 3 -293 10 -345 15 -52 5 -140 11 -195 15
-55 3 -131 8 -168 11 l-68 6 7 -42 c6 -37 44 -97 44 -70 0 6 11 10 25 10 24 0
25 -3 25 -59 l0 -60 -55 2 -55 2 0 116 0 117 -35 0 -35 0 0 -119z m256 -7 c-2
-4 -1 -14 5 -22 7 -13 9 -12 9 1 0 14 13 17 75 18 l75 1 0 -60 0 -60 -47 0
c-27 0 -78 3 -115 7 l-68 6 0 58 0 59 36 0 c19 0 33 -4 30 -8z m474 -68 l0
-64 -125 0 -125 0 0 65 0 66 125 -2 125 -1 0 -64z"/>
<path d="M4621 1631 c1 -91 5 -141 12 -141 16 0 235 -20 284 -26 l42 -5 3 -47
c3 -45 4 -47 36 -50 33 -3 37 -8 23 -30 -7 -11 -9 -10 -15 3 -3 9 -10 14 -15
10 -10 -6 18 -65 32 -65 4 0 7 -4 7 -10 0 -5 -8 -7 -17 -4 -14 5 -15 4 -4 -4
8 -6 20 -8 28 -5 7 3 13 0 13 -6 0 -6 5 -11 12 -11 9 0 9 3 0 12 -17 17 -15
28 4 28 8 0 13 -4 10 -9 -10 -16 5 -41 24 -41 16 0 18 8 18 55 -1 54 -1 55
-29 55 -17 0 -29 -5 -29 -12 0 -9 -4 -8 -10 2 -16 25 -12 28 30 23 l40 -6 0
56 c0 64 -3 67 -93 68 -54 1 -133 15 -100 18 8 1 13 24 15 63 2 40 8 63 16 66
11 3 13 -10 10 -62 l-4 -66 31 1 c26 0 27 2 10 9 -19 8 -19 9 3 9 12 1 22 -5
22 -12 0 -7 9 -13 21 -14 17 -2 18 1 9 13 -10 11 -9 14 4 14 9 0 16 -7 16 -15
0 -8 9 -15 20 -15 15 0 20 7 20 28 0 15 -5 34 -10 42 -8 13 -10 13 -10 -2 0
-14 -10 -17 -56 -17 -65 1 -73 11 -55 71 l12 40 23 -27 23 -27 8 24 c6 19 8
20 12 6 2 -10 8 -18 13 -18 5 0 11 8 13 18 3 9 5 2 6 -16 1 -19 5 -31 11 -27
6 3 10 44 10 89 l0 83 -177 7 c-98 3 -211 9 -251 12 l-73 6 2 -141z"/>
<path d="M1800 1621 c0 -12 3 -21 8 -22 4 0 16 -2 27 -4 10 -2 25 1 32 7 15
12 14 14 16 -81 1 -37 7 -66 13 -68 13 -4 27 31 26 65 -1 24 13 30 21 10 3 -7
6 -3 6 10 1 13 -5 22 -14 22 -20 0 -19 26 1 34 26 10 34 7 34 -11 0 -15 2 -16
10 -3 5 8 10 11 10 5 0 -5 7 -1 15 9 14 19 15 19 17 -10 1 -16 2 -36 2 -46 0
-10 10 -18 28 -20 27 -4 28 -3 28 34 0 36 2 38 20 28 14 -7 20 -7 20 0 0 5 4
10 9 10 12 0 19 -69 7 -73 -6 -2 -2 -6 7 -10 14 -5 17 0 17 26 0 36 19 77 20
42 0 -15 2 -17 9 -7 5 9 23 13 47 11 22 -2 45 0 51 4 6 4 14 4 17 -1 3 -5 33
-7 67 -6 l61 3 -4 -34 c-4 -36 7 -48 15 -17 4 12 1 -61 -2 -75 -1 -2 -6 -3
-12 -3 -6 0 -9 7 -5 15 4 13 2 14 -14 5 -11 -6 -20 -18 -20 -27 0 -12 3 -13
13 -4 10 8 17 7 25 -1 9 -9 12 -9 12 1 0 10 3 11 14 2 11 -9 15 -9 20 1 5 10
7 10 12 1 8 -18 24 -16 24 2 0 8 4 15 10 15 5 0 7 -6 4 -14 -3 -8 -1 -17 5
-21 7 -4 11 4 11 19 0 32 6 33 31 4 16 -20 18 -21 19 -5 0 11 -4 15 -12 11 -7
-4 -8 -3 -4 5 12 18 50 9 56 -14 8 -27 50 -30 50 -4 0 11 -5 19 -11 19 -8 0
-7 6 2 17 11 13 11 15 1 9 -11 -7 -11 -4 -1 12 16 26 38 32 117 32 43 0 62 4
62 13 0 8 3 7 10 -3 8 -12 10 -12 16 4 5 14 9 15 15 4 7 -11 9 -10 9 1 0 10 7
7 23 -9 l22 -25 3 24 4 24 116 -8 c65 -4 129 -8 145 -8 15 -1 27 -6 27 -11 0
-4 8 -6 18 -4 10 3 54 0 98 -6 44 -7 93 -9 109 -4 21 5 32 3 41 -10 8 -10 14
-12 14 -5 0 19 110 12 110 -7 0 -13 2 -13 10 0 11 18 124 18 146 -1 13 -10 17
-10 23 0 9 14 42 13 466 -15 121 -7 226 -14 233 -14 9 0 12 -27 12 -100 l0
-100 -30 -6 c-29 -6 -43 -22 -17 -21 35 1 47 -5 47 -23 0 -11 5 -20 10 -20 6
0 10 7 10 15 0 8 9 24 20 35 17 17 20 33 20 115 0 77 3 96 17 103 21 12 -34
17 -497 42 -369 20 -728 43 -960 60 -218 16 -470 29 -700 35 -233 6 -403 13
-435 20 -11 2 -62 7 -112 10 -90 7 -93 7 -93 -14z"/>
<path d="M4625 1338 l0 -143 -30 -6 c-21 -5 -23 -7 -9 -8 27 -1 84 18 84 29 0
5 -6 11 -12 13 -8 3 -6 6 5 6 10 1 17 -6 17 -16 0 -15 2 -15 9 -4 5 8 10 69
10 136 2 120 1 123 -21 129 -54 14 -53 17 -53 -136z"/>
<path d="M4722 1344 c3 -56 4 -59 31 -62 17 -2 27 1 27 9 0 7 7 4 15 -7 20
-26 19 -4 -1 25 -15 21 -15 23 7 39 32 22 70 26 62 6 -3 -8 -8 -13 -11 -10 -8
9 -42 -14 -42 -29 0 -7 7 -21 15 -29 9 -9 19 -38 22 -66 6 -50 18 -65 27 -32
12 42 20 88 17 101 -1 8 2 10 11 5 10 -6 10 -5 2 7 -6 8 -13 24 -16 35 -5 19
-1 22 25 20 17 0 32 5 34 12 3 7 -6 12 -24 13 -15 0 -35 2 -43 4 -8 1 -48 6
-88 10 l-73 7 3 -58z"/>
<path d="M1761 1383 c-1 -9 -20 -13 -62 -13 l-61 0 4 -30 c4 -26 1 -29 -26
-33 -17 -2 -4 -5 30 -5 34 -1 95 -5 137 -8 l77 -7 0 42 0 41 -44 0 c-26 0 -46
5 -49 13 -4 10 -6 10 -6 0z"/>
<path d="M1880 1351 c0 -14 5 -19 15 -15 8 4 15 1 15 -5 0 -6 -7 -11 -15 -11
-18 0 -20 -36 -3 -46 17 -11 158 -13 164 -3 3 5 16 6 30 3 15 -4 24 -2 24 6 0
6 -4 9 -9 6 -11 -7 -41 3 -41 13 0 4 17 6 38 4 33 -2 34 -1 8 5 -16 4 -31 13
-34 20 -4 12 28 17 98 14 27 -1 31 0 15 7 -36 15 -113 23 -119 12 -4 -6 -12
-8 -19 -6 -7 2 -47 6 -89 10 -74 5 -78 5 -78 -14z"/>
<path d="M3478 1172 c-10 -12 -10 -14 0 -8 6 4 12 2 12 -4 0 -7 17 -9 48 -6
26 3 39 3 30 0 -31 -9 -19 -23 15 -19 44 6 108 -5 101 -17 -4 -6 5 -8 22 -4
16 3 57 10 91 17 35 6 60 15 57 20 -3 5 -1 9 3 9 5 0 17 6 26 13 15 10 11 12
-27 12 -27 0 -42 -4 -38 -10 3 -5 -1 -4 -10 3 -11 9 -57 12 -167 11 -124 -1
-153 -4 -163 -17z"/>
</g>
</svg>
